<?xml version="1.0" encoding="UTF-8" standalone="no"?>
<!-- Created with Inkscape (http://www.inkscape.org/) -->

<svg
   xmlns:dc="http://purl.org/dc/elements/1.1/"
   xmlns:cc="http://creativecommons.org/ns#"
   xmlns:rdf="http://www.w3.org/1999/02/22-rdf-syntax-ns#"
   xmlns:svg="http://www.w3.org/2000/svg"
   xmlns="http://www.w3.org/2000/svg"
   xmlns:sodipodi="http://sodipodi.sourceforge.net/DTD/sodipodi-0.dtd"
   xmlns:inkscape="http://www.inkscape.org/namespaces/inkscape"
   width="649.3891"
   height="605.69971"
   id="svg3701"
   version="1.1"
   inkscape:version="0.48.0 r9654"
   sodipodi:docname="Trollface.svg">
  <defs
     id="defs3703">
    <style
       id="style3891"
       type="text/css">
   
    .str0 {stroke:black;stroke-width:0.238063}
    .fil0 {fill:black}
    .fil2 {fill:#050707}
    .fil3 {fill:#881846}
    .fil5 {fill:#F6BCD6}
    .fil1 {fill:#F9DD56}
    .fil4 {fill:#FDFCFD}
   
  </style>
    <inkscape:perspective
       sodipodi:type="inkscape:persp3d"
       inkscape:vp_x="0 : 0.5 : 1"
       inkscape:vp_y="0 : 1000 : 0"
       inkscape:vp_z="1 : 0.5 : 1"
       inkscape:persp3d-origin="0.5 : 0.33333333 : 1"
       id="perspective2991" />
    <inkscape:perspective
       sodipodi:type="inkscape:persp3d"
       inkscape:vp_x="0 : 0.5 : 1"
       inkscape:vp_y="0 : 1000 : 0"
       inkscape:vp_z="1 : 0.5 : 1"
       inkscape:persp3d-origin="0.5 : 0.33333333 : 1"
       id="perspective2975" />
    <inkscape:perspective
       sodipodi:type="inkscape:persp3d"
       inkscape:vp_x="0 : 0.5 : 1"
       inkscape:vp_y="0 : 1000 : 0"
       inkscape:vp_z="1 : 0.5 : 1"
       inkscape:persp3d-origin="0.5 : 0.33333333 : 1"
       id="perspective2959" />
    <inkscape:perspective
       sodipodi:type="inkscape:persp3d"
       inkscape:vp_x="0 : 0.5 : 1"
       inkscape:vp_y="0 : 1000 : 0"
       inkscape:vp_z="1 : 0.5 : 1"
       inkscape:persp3d-origin="0.5 : 0.33333333 : 1"
       id="perspective2943" />
    <inkscape:perspective
       sodipodi:type="inkscape:persp3d"
       inkscape:vp_x="0 : 0.5 : 1"
       inkscape:vp_y="0 : 1000 : 0"
       inkscape:vp_z="1 : 0.5 : 1"
       inkscape:persp3d-origin="0.5 : 0.33333333 : 1"
       id="perspective2927" />
    <inkscape:perspective
       sodipodi:type="inkscape:persp3d"
       inkscape:vp_x="0 : 0.5 : 1"
       inkscape:vp_y="0 : 1000 : 0"
       inkscape:vp_z="1 : 0.5 : 1"
       inkscape:persp3d-origin="0.5 : 0.33333333 : 1"
       id="perspective2911" />
    <inkscape:perspective
       sodipodi:type="inkscape:persp3d"
       inkscape:vp_x="0 : 0.5 : 1"
       inkscape:vp_y="0 : 1000 : 0"
       inkscape:vp_z="1 : 0.5 : 1"
       inkscape:persp3d-origin="0.5 : 0.33333333 : 1"
       id="perspective2895" />
    <inkscape:perspective
       sodipodi:type="inkscape:persp3d"
       inkscape:vp_x="0 : 0.5 : 1"
       inkscape:vp_y="0 : 1000 : 0"
       inkscape:vp_z="1 : 0.5 : 1"
       inkscape:persp3d-origin="0.5 : 0.33333333 : 1"
       id="perspective2879" />
    <inkscape:perspective
       id="perspective10"
       inkscape:persp3d-origin="372.04724 : 350.78739 : 1"
       inkscape:vp_z="744.09448 : 526.18109 : 1"
       inkscape:vp_y="0 : 1000 : 0"
       inkscape:vp_x="0 : 526.18109 : 1"
       sodipodi:type="inkscape:persp3d" />
    <inkscape:perspective
       sodipodi:type="inkscape:persp3d"
       inkscape:vp_x="0 : 0.5 : 1"
       inkscape:vp_y="0 : 1000 : 0"
       inkscape:vp_z="1 : 0.5 : 1"
       inkscape:persp3d-origin="0.5 : 0.33333333 : 1"
       id="perspective2911-1" />
    <inkscape:perspective
       sodipodi:type="inkscape:persp3d"
       inkscape:vp_x="0 : 0.5 : 1"
       inkscape:vp_y="0 : 1000 : 0"
       inkscape:vp_z="1 : 0.5 : 1"
       inkscape:persp3d-origin="0.5 : 0.33333333 : 1"
       id="perspective2895-9" />
    <inkscape:perspective
       sodipodi:type="inkscape:persp3d"
       inkscape:vp_x="0 : 0.5 : 1"
       inkscape:vp_y="0 : 1000 : 0"
       inkscape:vp_z="1 : 0.5 : 1"
       inkscape:persp3d-origin="0.5 : 0.33333333 : 1"
       id="perspective2879-8" />
    <inkscape:perspective
       id="perspective10-1"
       inkscape:persp3d-origin="372.04724 : 350.78739 : 1"
       inkscape:vp_z="744.09448 : 526.18109 : 1"
       inkscape:vp_y="0 : 1000 : 0"
       inkscape:vp_x="0 : 526.18109 : 1"
       sodipodi:type="inkscape:persp3d" />
    <inkscape:perspective
       sodipodi:type="inkscape:persp3d"
       inkscape:vp_x="0 : 526.18109 : 1"
       inkscape:vp_y="0 : 1000 : 0"
       inkscape:vp_z="744.09448 : 526.18109 : 1"
       inkscape:persp3d-origin="372.04724 : 350.78739 : 1"
       id="perspective2500" />
    <inkscape:perspective
       id="perspective2502"
       inkscape:persp3d-origin="372.04724 : 350.78739 : 1"
       inkscape:vp_z="744.09448 : 526.18109 : 1"
       inkscape:vp_y="0 : 1000 : 0"
       inkscape:vp_x="0 : 526.18109 : 1"
       sodipodi:type="inkscape:persp3d" />
    <inkscape:perspective
       id="perspective2504"
       inkscape:persp3d-origin="372.04724 : 350.78739 : 1"
       inkscape:vp_z="744.09448 : 526.18109 : 1"
       inkscape:vp_y="0 : 1000 : 0"
       inkscape:vp_x="0 : 526.18109 : 1"
       sodipodi:type="inkscape:persp3d" />
    <inkscape:perspective
       sodipodi:type="inkscape:persp3d"
       inkscape:vp_x="0 : 526.18109 : 1"
       inkscape:vp_y="0 : 1000 : 0"
       inkscape:vp_z="744.09448 : 526.18109 : 1"
       inkscape:persp3d-origin="372.04724 : 350.78739 : 1"
       id="perspective2468" />
    <inkscape:perspective
       sodipodi:type="inkscape:persp3d"
       inkscape:vp_x="0 : 526.18109 : 1"
       inkscape:vp_y="0 : 1000 : 0"
       inkscape:vp_z="744.09448 : 526.18109 : 1"
       inkscape:persp3d-origin="372.04724 : 350.78739 : 1"
       id="perspective2453" />
    <inkscape:perspective
       sodipodi:type="inkscape:persp3d"
       inkscape:vp_x="0 : 526.18109 : 1"
       inkscape:vp_y="0 : 1000 : 0"
       inkscape:vp_z="744.09448 : 526.18109 : 1"
       inkscape:persp3d-origin="372.04724 : 350.78739 : 1"
       id="perspective2430" />
    <inkscape:perspective
       sodipodi:type="inkscape:persp3d"
       inkscape:vp_x="0 : 526.18109 : 1"
       inkscape:vp_y="0 : 1000 : 0"
       inkscape:vp_z="744.09448 : 526.18109 : 1"
       inkscape:persp3d-origin="372.04724 : 350.78739 : 1"
       id="perspective2413" />
    <inkscape:perspective
       sodipodi:type="inkscape:persp3d"
       inkscape:vp_x="0 : 526.18109 : 1"
       inkscape:vp_y="0 : 1000 : 0"
       inkscape:vp_z="744.09448 : 526.18109 : 1"
       inkscape:persp3d-origin="372.04724 : 350.78739 : 1"
       id="perspective2400" />
    <inkscape:perspective
       sodipodi:type="inkscape:persp3d"
       inkscape:vp_x="0 : 526.18109 : 1"
       inkscape:vp_y="0 : 1000 : 0"
       inkscape:vp_z="744.09448 : 526.18109 : 1"
       inkscape:persp3d-origin="372.04724 : 350.78739 : 1"
       id="perspective2403" />
    <inkscape:perspective
       sodipodi:type="inkscape:persp3d"
       inkscape:vp_x="0 : 526.18109 : 1"
       inkscape:vp_y="0 : 1000 : 0"
       inkscape:vp_z="744.09448 : 526.18109 : 1"
       inkscape:persp3d-origin="372.04724 : 350.78739 : 1"
       id="perspective2390" />
    <inkscape:perspective
       id="perspective10-9"
       inkscape:persp3d-origin="372.04724 : 350.78739 : 1"
       inkscape:vp_z="744.09448 : 526.18109 : 1"
       inkscape:vp_y="0 : 1000 : 0"
       inkscape:vp_x="0 : 526.18109 : 1"
       sodipodi:type="inkscape:persp3d" />
    <inkscape:perspective
       sodipodi:type="inkscape:persp3d"
       inkscape:vp_x="0 : 526.18109 : 1"
       inkscape:vp_y="0 : 1000 : 0"
       inkscape:vp_z="744.09448 : 526.18109 : 1"
       inkscape:persp3d-origin="372.04724 : 350.78739 : 1"
       id="perspective2389" />
    <inkscape:perspective
       sodipodi:type="inkscape:persp3d"
       inkscape:vp_x="0 : 526.18109 : 1"
       inkscape:vp_y="0 : 1000 : 0"
       inkscape:vp_z="744.09448 : 526.18109 : 1"
       inkscape:persp3d-origin="372.04724 : 350.78739 : 1"
       id="perspective3240" />
    <inkscape:perspective
       sodipodi:type="inkscape:persp3d"
       inkscape:vp_x="0 : 526.18109 : 1"
       inkscape:vp_y="0 : 1000 : 0"
       inkscape:vp_z="744.09448 : 526.18109 : 1"
       inkscape:persp3d-origin="372.04724 : 350.78739 : 1"
       id="perspective3227" />
    <inkscape:perspective
       id="perspective3218"
       inkscape:persp3d-origin="372.04724 : 350.78739 : 1"
       inkscape:vp_z="744.09448 : 526.18109 : 1"
       inkscape:vp_y="0 : 1000 : 0"
       inkscape:vp_x="0 : 526.18109 : 1"
       sodipodi:type="inkscape:persp3d" />
  </defs>
  <sodipodi:namedview
     id="base"
     pagecolor="#ffffff"
     bordercolor="#666666"
     borderopacity="1.0"
     inkscape:pageopacity="0.0"
     inkscape:pageshadow="2"
     inkscape:zoom="0.49497475"
     inkscape:cx="164.05151"
     inkscape:cy="243.65627"
     inkscape:document-units="px"
     inkscape:current-layer="layer1"
     showgrid="false"
     fit-margin-top="0"
     fit-margin-left="0"
     fit-margin-right="0"
     fit-margin-bottom="0"
     showborder="false"
     inkscape:window-width="1280"
     inkscape:window-height="904"
     inkscape:window-x="-4"
     inkscape:window-y="-4"
     inkscape:window-maximized="1" />
  <metadata
     id="metadata3706">
    <rdf:RDF>
      <cc:Work
         rdf:about="">
        <dc:format>image/svg+xml</dc:format>
        <dc:type
           rdf:resource="http://purl.org/dc/dcmitype/StillImage" />
      </cc:Work>
    </rdf:RDF>
  </metadata>
  <g
     inkscape:label="Layer 1"
     inkscape:groupmode="layer"
     id="layer1"
     transform="translate(-423.46816,-1439.6244)">
    <g
       id="layer1-9"
       inkscape:label="Layer 1"
       transform="translate(333.85776,1206.0302)">
      <path
         id="path2403"
         d="m 569.91814,838.80475 c -7.74056,-0.23904 -17.24036,-0.68966 -21.11062,-1.00128 -7.2903,-0.58711 -10.40108,-1.37682 -59.84144,-15.19159 -21.87406,-6.11217 -44.98248,-11.7332 -55.50842,-13.50221 -4.01635,-0.67504 -8.37873,-1.84471 -11.5846,-3.10618 -8.31472,-3.27166 -31.34925,-14.98701 -51.42339,-26.15378 -29.09846,-16.18678 -47.71235,-26.08775 -63.70685,-33.88648 -23.3883,-11.40386 -44.40361,-24.10508 -67.82862,-40.99424 -14.62625,-10.54531 -22.29402,-17.09939 -34.91374,-29.84263 -22.62554,-22.84698 -34.99363,-40.59245 -45.46333,-65.22995 -8.51679,-20.04183 -17.48232,-34.58406 -29.5342,-47.90491 -6.18381,-6.83494 -13.91034,-16.73001 -18.80886,-24.08778 -5.44442,-8.17777 -11.84997,-20.95049 -14.38749,-28.68881 -5.613797,-17.11963 -7.774337,-41.92025 -4.974953,-57.10699 2.939776,-15.94835 11.495143,-30.33326 32.193593,-54.12983 2.84845,-3.27489 5.30435,-6.07609 5.45749,-6.22496 1.01016,-0.98191 7.76871,-8.90543 12.39164,-14.52766 12.42793,-15.11436 19.81019,-27.47728 28.49585,-47.72164 11.97903,-27.92054 24.1426,-48.01149 39.92046,-65.93812 8.26548,-9.39108 13.38524,-13.69629 28.70679,-24.13967 l 8.55596,-5.83188 86.17125,0.32796 c 47.39419,0.18035 89.09426,0.43569 92.66683,0.56737 3.57257,0.13169 13.43772,0.50232 21.92256,0.82349 87.44958,3.31077 141.50776,12.59941 179.22944,30.79651 21.40928,10.32793 44.24206,27.92905 55.10666,42.48021 6.08925,8.15536 9.78949,17.63594 9.78949,25.0818 0,12.98893 3.7864,27.02342 9.72474,36.04561 3.71116,5.63826 6.40019,8.45654 12.73491,13.34676 11.20244,8.64796 17.47768,18.29866 21.13688,32.50641 3.02865,11.75915 4.364,28.61729 3.85903,48.71686 -0.61573,24.51044 -1.1808,26.45078 -19.31175,66.30905 l -9.35662,20.56934 0.33997,56.56569 c 0.18704,31.11113 0.45516,59.85407 0.59583,63.87321 0.14077,4.01914 0.39282,11.93563 0.56006,17.5922 0.61881,20.92681 1.08561,30.36175 3.03303,61.29745 l 1.09867,17.45228 -5.5389,9.88329 c -12.30559,21.95718 -20.14782,31.13737 -35.07848,41.0632 -9.84092,6.54227 -25.39572,13.78511 -35.76203,16.6521 -12.85187,3.55435 -31.58705,4.4324 -69.55684,3.2598 z m 43.30385,-16.41087 c 20.22692,-1.95332 27.41306,-3.67846 39.69604,-9.52961 16.21495,-7.72411 28.36771,-18.10609 37.22181,-31.79815 2.84496,-4.39934 7.64339,-14.2589 9.20808,-18.91995 1.74895,-5.2102 2.22066,-13.48563 1.35028,-23.69138 -2.6612,-31.20539 -3.2197,-49.33804 -3.90106,-126.66384 l -0.59619,-67.6623 9.77414,-21.50237 c 16.74296,-36.83333 17.98662,-40.67874 19.07072,-58.96578 0.89648,-15.12062 -0.44154,-31.43301 -3.32278,-40.51205 -1.61957,-5.10338 -4.97769,-11.63875 -8.13975,-15.8412 -1.51545,-2.01405 -6.82601,-7.73831 -11.80109,-12.72049 -17.28119,-17.30579 -22.633,-28.68785 -23.85693,-50.73854 -0.68313,-12.30664 -2.86291,-18.56277 -9.24148,-26.52362 -10.22246,-12.75814 -37.23936,-31.75628 -56.82247,-39.95712 -16.7548,-7.01643 -30.94365,-8.95117 -59.80599,-8.15499 -22.72255,0.62685 -47.12983,0.50931 -57.91893,-0.27888 -12.45879,-0.91017 -17.27733,-1.43039 -38.16154,-4.12026 -24.08798,-3.10248 -37.08198,-4.41256 -51.15271,-5.15731 -22.21073,-1.17568 -41.20501,1.003 -59.1534,6.78486 -28.41147,9.15246 -70.91972,33.18739 -96.75885,54.7092 -9.49166,7.90577 -16.5979,12.75793 -17.44458,11.91126 -1.9669,-1.9669 20.15236,-20.26848 46.693,-38.63392 21.25238,-14.70609 35.5657,-22.18265 54.58363,-28.51172 35.45062,-11.79775 71.9317,-14.13496 109.9711,-7.04552 18.84781,3.51268 49.95818,5.97714 82.81866,6.56065 18.03607,0.32029 27.32074,-0.11023 28.53349,-1.32298 0.727,-0.727 -2.62935,-2.45026 -6.91404,-3.54992 -13.24416,-3.39901 -50.29695,-7.07262 -87.9285,-8.71761 -3.72144,-0.1627 -8.95848,-0.41167 -11.63791,-0.55327 -5.46126,-0.2887 -19.04733,-0.72219 -41.95065,-1.3386 -8.48484,-0.22839 -46.37803,-0.36791 -84.20706,-0.31016 l -68.78009,0.10506 -9.43756,6.3814 c -10.86345,7.3456 -13.61912,9.55316 -20.06578,16.07501 -15.47768,15.65813 -28.64022,37.29126 -41.61793,68.40064 -5.75716,13.80083 -12.94789,28.7787 -16.242,33.83116 -1.26168,1.93515 -3.87506,5.41692 -5.80755,7.73722 -1.93244,2.32034 -3.42277,4.29847 -3.31176,4.3958 0.22202,0.19466 27.87616,0.84129 36.4237,0.85163 2.95231,0.004 5.22159,0.15278 5.04281,0.33157 -0.17879,0.17878 -5.88269,0.91278 -12.67538,1.63105 -19.5759,2.06997 -32.76968,4.65228 -39.12037,7.65665 -10.90538,5.15908 -36.05189,40.68186 -40.0715,56.60639 -4.44047,17.59184 -1.11798,40.27503 8.91993,60.89787 8.13463,16.71259 18.06751,27.41741 30.97295,33.38009 4.90087,2.26434 10.98031,6.5056 10.98031,7.66027 0,1.03885 -2.37387,0.84099 -7.69534,-0.64141 -1.99959,-0.55701 -3.80123,-0.84716 -4.00361,-0.64476 -0.46879,0.46878 1.393,3.27467 6.55109,9.87327 6.8293,8.73653 15.49438,24.53431 21.61125,39.40075 11.36436,27.62001 36.56709,59.10643 63.81911,79.73093 19.50552,14.76188 57.83565,38.50712 72.90495,45.16404 10.12001,4.47055 39.34708,20.01105 66.03842,35.11367 13.52857,7.6548 36.2776,19.16677 46.01038,23.28317 5.03706,2.13049 8.77203,3.26878 14.61503,4.45438 17.29476,3.50929 33.92452,7.91616 83.31971,22.07973 30.17358,8.65193 31.90091,9.07054 40.35009,9.77816 8.33466,0.69801 43.04957,0.18897 53.0641,-0.77817 z M 586.69837,769.5372 c -41.97858,-0.63188 -72.01692,-2.06503 -90.12614,-4.29998 -53.39901,-6.59025 -118.68516,-23.78254 -163.74278,-43.11962 -16.62395,-7.1344 -47.12048,-23.61204 -72.26332,-39.04475 -15.87639,-9.74497 -28.14752,-18.2879 -28.14752,-19.59581 0,-2.20381 11.64757,3.77551 36.53764,18.75674 27.60474,16.61517 35.13878,20.88253 50.05034,28.34902 31.41312,15.72908 60.19416,25.34614 112.6098,37.62804 51.08374,11.9698 70.11738,14.40801 130.72358,16.74569 11.61086,0.44785 23.79009,0.93413 27.06493,1.08062 9.02287,0.40361 27.97014,1.08417 29.50073,1.05962 0.83169,-0.0133 6.04764,-3.22283 13.5325,-8.32683 33.39286,-22.77098 34.75829,-24.20121 36.48625,-38.21799 0.42551,-3.45165 0.88746,-6.38951 1.0265,-6.52858 0.46175,-0.46173 1.04275,15.87341 0.65009,18.27874 -0.5031,3.08237 -2.59427,6.91895 -5.06437,9.29152 -2.52289,2.42333 -11.22875,8.64823 -27.59482,19.73101 l -12.9893,8.79611 -5.59461,-0.0881 c -3.077,-0.0484 -17.77379,-0.2714 -32.6595,-0.49547 z m -54.12982,-23.58743 c -16.17198,-0.24767 -51.02932,-1.89105 -73.07527,-3.4452 -29.09094,-2.0508 -41.51621,-5.06211 -71.99269,-17.44766 -23.85542,-9.69476 -55.98007,-25.29493 -87.7353,-42.60541 -13.23628,-7.21541 -28.15995,-16.21459 -30.74278,-18.53837 -2.18741,-1.96806 -2.20344,-2.00811 -0.81023,-2.02987 2.53172,-0.0395 17.74852,7.40856 40.25877,19.70532 21.55339,11.77405 47.57622,24.64407 68.52183,33.8886 2.80208,1.23673 14.9599,6.33391 27.01731,11.32707 l 21.92256,9.07847 6.49559,0.35769 c 3.57258,0.19672 10.75835,0.59498 15.96834,0.88501 19.65788,1.09432 59.18881,3.2111 70.91006,3.79706 6.69855,0.33488 20.94828,0.61983 31.66595,0.63322 21.41638,0.0268 30.7658,-0.68064 40.6605,-3.07652 14.28518,-3.45897 21.97191,-8.05448 35.39193,-21.15902 7.68145,-7.50085 11.43229,-10.53133 13.03457,-10.53133 0.82004,0 0.89194,0.24982 0.48283,1.67642 -2.10015,7.32277 -18.4423,21.57907 -33.29156,29.04234 -8.00138,4.02152 -16.81872,6.12587 -31.03471,7.40681 -8.79516,0.79248 -28.69072,1.26443 -43.6477,1.03537 z m -57.91893,-24.50615 -3.78906,-0.31038 4.06309,-0.41659 c 5.24106,-0.53736 56.58065,-0.54394 62.4059,-0.008 l 4.44107,0.4086 -3.51843,0.35069 c -4.30092,0.42868 -58.32464,0.40801 -63.60257,-0.0243 z m 2.43585,-18.22437 c -1.63743,-0.10914 -8.04284,-0.4522 -14.23427,-0.76234 -40.00124,-2.00377 -73.3564,-8.34168 -100.24182,-19.04723 -27.40679,-10.91316 -61.22667,-34.24256 -86.90743,-59.94989 -19.56499,-19.58519 -31.48445,-35.57541 -50.86349,-68.23452 -10.27457,-17.31548 -16.6615,-27.22944 -20.20014,-31.35514 -2.91993,-3.40431 -3.46052,-5.4169 -2.48132,-9.23757 0.96718,-3.77369 0.005,-9.31921 -2.50921,-14.46002 -2.92035,-5.97153 -5.37233,-7.18182 -14.59278,-7.20297 -10.48432,-0.024 -17.14449,-2.53622 -17.48655,-6.59579 -0.14151,-1.67934 0.0898,-2.14683 1.62389,-3.28251 0.9839,-0.72836 4.22475,-2.24424 7.20186,-3.36862 7.21934,-2.72654 14.01089,-6.25087 17.32155,-8.98862 5.01899,-4.15046 7.23966,-8.27319 9.51379,-17.66238 2.6386,-10.894 7.69132,-16.77783 11.30489,-13.16427 0.93705,0.93706 2.00856,3.91798 2.93032,8.15175 2.41366,11.08679 34.65721,29.41563 92.39819,52.52378 31.71383,12.69197 78.07406,29.12533 99.15396,35.14721 25.50182,7.28506 50.57469,12.19948 76.45867,14.98627 11.08767,1.19375 46.07237,1.37084 55.21246,0.27948 29.2502,-3.49259 48.88625,-10.07886 68.20358,-22.87661 18.62375,-12.33825 25.41822,-23.35476 27.85088,-45.15733 0.33219,-2.97714 1.11809,-7.92587 1.74634,-10.99718 1.53221,-7.48975 3.53164,-10.40814 6.60279,-9.63734 2.5832,0.64834 4.38269,4.81893 5.67215,13.14568 0.84093,5.43071 2.57949,9.72595 4.99926,12.3511 2.56038,2.77768 3.80373,5.62738 5.59007,12.81236 7.09606,28.54204 8.17102,90.97038 2.18594,126.95488 -6.38714,38.40202 -21.68984,55.91852 -57.08328,65.34142 -16.27375,4.33261 -41.38395,7.73672 -70.36879,9.53965 -9.31783,0.57959 -53.18065,1.13474 -59.00151,0.74675 z m 24.84949,-17.67638 c 0.3123,-1.56301 0.79879,-4.30332 1.08112,-6.08961 0.28227,-1.78629 1.3837,-8.3067 2.44764,-14.48981 2.69698,-15.67323 2.54764,-19.51922 -0.82547,-21.26351 -1.75856,-0.9094 -6.52039,-1.64636 -15.64419,-2.42113 -9.34263,-0.79337 -19.87958,-2.48048 -25.89082,-4.14547 -4.38071,-1.21338 -5.15355,-1.29625 -5.8252,-0.6246 -1.31828,1.31828 -2.29993,7.82599 -2.96682,19.66869 -0.89528,15.89769 -0.0699,28.33324 1.98204,29.8617 1.80086,1.34142 13.20229,2.14868 31.98577,2.26471 l 13.08814,0.0808 0.56779,-2.84181 z m 35.94086,1.46881 c 4.02915,-1.23089 5.72505,-3.18282 9.72767,-11.19641 2.77358,-5.55296 11.21805,-26.18592 11.21805,-27.40985 0,-0.70285 -10.97974,-1.43478 -21.11066,-1.40731 -12.52239,0.034 -12.84519,0.26476 -15.65281,11.19195 -1.2034,4.68343 -5.45781,28.05017 -5.45781,29.97602 0,0.18895 4.08006,0.22246 9.06673,0.0745 6.49366,-0.19267 9.95846,-0.54144 12.20883,-1.2289 z m 34.80587,-4.33974 c 2.71081,-0.68897 6.43089,-1.42262 8.26694,-1.63034 1.83599,-0.20771 3.50777,-0.65007 3.71507,-0.98301 0.20734,-0.33293 0.40059,-2.55401 0.42952,-4.93572 0.075,-6.18613 1.22121,-9.47206 10.63439,-30.48806 0.57656,-1.28731 0.97313,-2.53289 0.88124,-2.76798 -0.0919,-0.23508 -2.95414,0.3929 -6.36056,1.39552 -3.40638,1.00262 -7.77905,2.09906 -9.71697,2.43653 -4.12694,0.71868 -4.79854,1.3307 -7.34074,6.68946 -1.7865,3.76582 -9.49735,28.56153 -9.49735,30.5405 0,1.89874 0.57119,1.88242 8.98846,-0.2569 z m -136.22311,0.85685 c 1.58213,-0.84674 2.661,-4.40476 3.23558,-10.67082 0.63343,-6.90764 1.92576,-40.68865 1.57017,-41.0442 -0.13477,-0.13477 -4.85744,-1.57033 -10.49476,-3.19012 -19.00477,-5.46065 -28.64137,-8.9369 -50.28505,-18.13946 -3.56109,-1.51413 -6.50677,-2.75297 -6.54587,-2.75297 -0.0392,0 -0.22792,3.97499 -0.41955,8.83332 -0.46582,11.81157 -1.65763,16.43901 -7.02229,27.265 -8.63114,17.41779 -7.32508,20.38103 12.07234,27.38986 23.27447,8.40972 53.26169,14.78609 57.88943,12.30939 z m 169.88837,-8.36327 c 1.83934,-0.72082 5.09575,-1.58235 7.23653,-1.9145 2.35324,-0.36512 5.12953,-1.26337 7.0214,-2.27171 3.16942,-1.68928 9.66803,-7.14322 9.66803,-8.11385 0,-0.32908 -1.42657,-0.38809 -3.77887,-0.15629 -3.02593,0.29816 -4.04523,0.19785 -5.11549,-0.50341 -2.76898,-1.81431 -2.77691,-6.31636 -0.0301,-17.1524 2.0659,-8.15007 1.73412,-10.8039 -1.11726,-8.93562 -3.79589,2.48716 -10.27483,13.63089 -15.28181,26.28462 -5.88002,14.85996 -5.80071,15.58414 1.39754,12.76316 z m 30.66947,-17.81783 c 3.35651,-5.72754 11.38592,-26.90363 12.41577,-32.7444 1.49148,-8.45945 -11.18839,17.73705 -14.40961,29.76992 -1.64259,6.13613 -0.69102,7.55579 1.99384,2.97448 z M 348.94264,646.46798 c 9.58412,-22.45857 12.06211,-34.47009 8.44661,-40.94313 -1.81417,-3.24803 -3.21296,-4.09517 -11.0944,-6.71889 -10.23421,-3.40697 -19.40646,-7.6161 -39.78047,-18.25511 l -13.86521,-7.24021 -0.29893,8.41419 c -0.4054,11.40902 -1.72708,16.29148 -6.42092,23.71936 -3.03664,4.80551 0.17774,8.17924 28.496,29.90865 7.14515,5.48268 16.52313,12.70654 20.83998,16.05304 4.31685,3.3465 8.09802,6.09361 8.40265,6.10467 0.30457,0.0111 2.67818,-4.95808 5.27469,-11.04257 z m -74.78877,-51.87403 c 1.01157,-0.6758 2.26515,-2.07641 2.78569,-3.11247 1.92627,-3.83403 0.78432,-18.53307 -1.88247,-24.23107 -2.48639,-5.31254 -8.51653,-9.74048 -24.29841,-17.84237 -9.63588,-4.94673 -13.9708,-6.85196 -14.46517,-6.3576 -1.41169,1.41173 23.79031,39.83834 32.92428,50.20104 1.24649,1.41415 2.45319,2.57117 2.68158,2.57117 0.22839,0 1.24288,-0.55292 2.2545,-1.2287 z m 180.50114,-4.31961 c -0.19471,-3.05157 -0.58304,-8.83669 -0.86291,-12.85583 -0.27988,-4.01914 -0.55552,-8.58113 -0.61254,-10.13774 -0.057,-1.55662 -0.24301,-3.04802 -0.41339,-3.31422 -0.17038,-0.2662 -1.52772,-0.74882 -3.01627,-1.07249 -1.48856,-0.32366 -7.94352,-1.82171 -14.34439,-3.32899 -43.55679,-10.25678 -46.74809,-10.79611 -48.16939,-8.14043 -0.70486,1.31702 -4.16,16.10491 -4.9497,21.18448 -1.01674,6.53973 0.13795,9.67078 4.36076,11.82512 2.82141,1.43937 14.80044,5.05342 22.23471,6.70816 10.03709,2.23409 21.21243,3.67 31.93657,4.10351 5.50773,0.22264 10.95374,0.44348 12.10232,0.49077 l 2.08825,0.086 -0.35402,-5.54831 z m 61.40164,4.60104 c -0.003,-1.36964 -2.51767,-15.40837 -3.59675,-20.08231 -0.69164,-2.99569 -1.19636,-4.09565 -2.04287,-4.45212 -1.38089,-0.58148 -12.09115,-2.17511 -26.83598,-3.99303 -6.10313,-0.75247 -12.01005,-1.51383 -13.12646,-1.69193 l -2.02988,-0.32381 0,15.74524 0,15.74523 23.81709,0 c 22.323,0 23.81699,-0.0594 23.81485,-0.94727 z m 45.47137,-0.90931 c 7.428,-1.08357 14.59581,-2.8484 16.65518,-4.10076 2.67139,-1.62457 2.62497,-2.95824 -0.53798,-15.4558 -2.56387,-10.13066 -2.98311,-11.32542 -3.94466,-11.24133 -1.56139,0.13652 -45.97582,7.33326 -46.15204,7.47829 -0.34024,0.27998 1.5958,18.85786 2.10469,20.19635 0.68063,1.79025 2.01839,3.32519 3.45666,3.96623 1.60374,0.71478 21.85812,0.11397 28.41815,-0.84298 z m 41.40933,-5.17997 c 0.89314,-0.25229 2.90239,-0.62198 4.46493,-0.82151 3.12462,-0.399 4.20521,-1.41885 5.75867,-5.43496 3.5719,-9.23407 4.28568,-22.31603 1.6887,-30.94882 -1.48876,-4.9488 -3.07162,-4.91759 -12.45362,0.24556 -11.29528,6.21608 -11.99455,7.46769 -9.82291,17.58182 0.78616,3.66139 1.67246,9.1675 1.96962,12.2358 0.73592,7.59892 1.72284,9.1698 5.10133,8.11971 0.91816,-0.28538 2.40013,-0.7253 3.29328,-0.9776 z m 33.94315,-12.23744 c 0.9251,-0.47843 2.86172,-1.97326 4.30349,-3.32187 2.40326,-2.24796 2.62105,-2.65981 2.61761,-4.9491 -0.005,-3.40374 -1.59388,-9.7387 -4.63083,-18.46541 -3.94246,-11.32884 -7.48674,-18.37178 -8.65662,-17.20189 -1.41201,1.41199 -1.62562,15.03512 -0.45036,28.71911 1.36982,15.94906 2.12872,17.6434 6.81671,15.21916 z m -270.83201,-2.68148 c 0.59964,-0.76238 1.36882,-2.77195 1.70927,-4.46571 0.34044,-1.69377 1.54536,-7.4641 2.67765,-12.82295 2.40979,-11.40523 2.32996,-12.01048 -1.94564,-14.75374 -2.71729,-1.74343 -10.37243,-4.94683 -17.52682,-7.33435 -13.68141,-4.56567 -31.13465,-10.61935 -41.67996,-14.45677 -13.43626,-4.8894 -18.35359,-5.89919 -19.38077,-3.97987 -0.99658,1.86206 -1.14001,6.11115 -0.3136,9.2883 1.58599,6.09713 7.94467,16.18124 14.89876,23.62764 5.07867,5.43816 7.65754,7.15553 12.19959,8.12415 6.87979,1.46713 12.23891,3.55601 28.86298,11.2502 16.19646,7.49627 18.46553,8.10763 20.49854,5.5231 z m -91.0691,-34.69149 c 0.98651,-2.36112 1.07799,-11.65811 0.22818,-23.19456 -0.30697,-4.16799 -0.56032,-7.99024 -0.56293,-8.49387 -0.005,-0.97195 -0.86824,-1.50701 -23.00995,-14.26269 -32.86334,-18.93235 -40.73329,-21.18506 -40.46715,-11.58339 0.10787,3.89256 3.4777,14.38169 6.7717,21.07814 3.77575,7.67586 10.82048,14.02833 24.76402,22.33051 11.51594,6.85676 29.1112,16.06497 30.74633,16.09063 0.38733,0.006 1.07574,-0.87807 1.5298,-1.96477 z m 374.88488,-14.13097 c -0.85111,-3.31417 -3.94346,-9.45468 -4.92166,-9.77305 -0.60001,-0.19529 -0.68554,0.20259 -0.41162,1.91542 1.02321,6.39889 3.98382,12.43458 5.40325,11.01523 0.42524,-0.42526 0.40576,-1.30537 -0.07,-3.1576 z m -487.70898,15.54876 c -1.57946,-0.56114 -6.00179,-2.64684 -9.8275,-4.6349 -23.90883,-12.42452 -28.17603,-22.3125 -29.06097,-67.34106 -0.37042,-18.84891 0.20881,-29.22201 1.99097,-35.65311 2.10088,-7.58125 9.34446,-19.98804 15.271,-26.15613 5.40225,-5.62239 12.30053,-9.08537 21.52103,-10.80356 3.61528,-0.67369 36.08383,-1.01371 44.65712,-0.46764 l 4.33037,0.2758 -7.8488,0.71201 c -4.31685,0.39161 -8.82319,0.81737 -10.01401,0.94619 -1.19088,0.12881 -7.28049,0.73274 -13.5325,1.34209 -28.82078,2.80908 -32.04701,4.31623 -41.66393,19.46358 -4.82699,7.60282 -8.16935,14.50057 -9.57373,19.7574 -1.03084,3.85861 -1.18378,6.16737 -1.40392,21.19056 -0.45892,31.31688 1.83506,46.52991 8.54865,56.69277 3.86921,5.85703 7.18509,8.66925 17.29868,14.67108 11.12166,6.60007 14.61502,9.20018 14.61502,10.87787 0,0.51319 -2.61781,0.0826 -5.30748,-0.87295 z m 337.31108,0.50674 c -4.31178,-0.72036 -8.59788,-2.53033 -10.43027,-4.40456 -1.94565,-1.99001 -3.83115,-6.64941 -3.83115,-9.46731 0,-1.08569 0.49077,-2.98777 1.09057,-4.22683 1.93254,-3.9921 5.42653,-4.57689 9.54095,-1.59687 5.71758,4.14115 8.47084,4.37311 14.45754,1.21802 6.43162,-3.38958 16.16733,-14.74665 21.53757,-25.12447 2.60132,-5.02691 2.82517,-8.7838 0.79665,-13.3706 -2.31778,-5.24094 -5.41018,-7.91661 -10.07369,-8.71609 -6.26877,-1.07467 -13.46493,-11.84473 -15.96552,-23.89472 -0.48858,-2.35429 -1.08629,-8.71089 -1.32831,-14.12572 -0.62079,-13.89148 -0.92343,-14.42877 -11.75049,-20.86374 -5.89673,-3.50464 -9.6354,-6.90564 -10.24016,-9.31516 -0.58815,-2.34353 0.17518,-4.00111 2.34953,-5.1017 2.50436,-1.26769 4.04612,-1.57545 9.87001,-1.97014 8.64488,-0.58591 13.96484,-2.90438 21.31034,-9.28708 13.18359,-11.45562 22.49802,-15.87618 38.77381,-18.40157 9.07889,-1.40872 31.52872,-1.41018 37.53254,-0.002 7.4244,1.74081 11.35982,3.94435 17.66111,9.88865 4.38233,4.13405 6.59788,7.49995 6.67265,10.13704 0.22531,7.94869 -10.30694,11.80787 -41.56764,15.23095 -34.80263,3.81094 -53.65618,10.01621 -55.96477,18.41975 -0.7342,2.67243 -0.74961,7.59942 -0.0448,14.34439 1.22748,11.74716 2.93111,14.52816 13.60852,22.21416 12.52824,9.01828 21.13417,16.40822 30.43074,26.13108 9.67895,10.1227 13.36797,12.96508 18.06604,13.91988 4.45564,0.90553 9.29063,3.35679 13.84036,7.01684 3.46553,2.78791 6.85822,6.62015 6.85822,7.74684 0,1.18956 -3.63434,0.0149 -8.1399,-2.63088 -6.72863,-3.95125 -19.40656,-10.15344 -23.64431,-11.56707 -5.9303,-1.9782 -7.43505,-1.48797 -10.74665,3.50117 -2.53396,3.81754 -3.89782,4.2105 -6.7258,1.93786 -3.30806,-2.65841 -4.66565,-2.31165 -9.93779,2.53829 -3.0018,2.7614 -7.29333,7.37592 -11.9442,12.84315 -4.88073,5.73739 -12.32288,12.93778 -14.98325,14.49658 -4.65944,2.73007 -10.50766,3.58009 -17.07844,2.48232 z m 84.98518,-151.86235 c 2.27779,-0.19252 4.1414,-0.53651 4.1414,-0.76438 0,-0.66402 -4.21127,-1.19505 -9.47275,-1.19453 -5.64307,6.2e-4 -10.55528,0.58241 -10.55528,1.25019 0,0.78328 9.82129,1.22142 15.88663,0.70872 z M 400.3901,524.14461 c -3.10979,-1.77823 -7.04118,-4.831 -8.32772,-6.4665 -2.03739,-2.59012 -4.2567,-8.21542 -5.04379,-12.78454 -1.40057,-8.1301 -0.14072,-18.91354 2.90792,-24.88937 3.58521,-7.0276 10.48704,-10.68078 21.23035,-11.23741 13.89701,-0.72001 21.1327,3.84092 16.77282,10.57256 -1.19866,1.85069 -4.08972,3.06864 -9.84573,4.14781 -14.17516,2.65763 -17.32155,4.85944 -17.32155,12.12146 0,4.5388 1.64379,8.61817 4.91503,12.19743 3.12953,3.42419 4.29158,5.8991 4.27518,9.10497 -0.0127,2.47617 -1.40062,6.0889 -2.92468,7.61296 -1.30001,1.3 -3.96753,1.14754 -6.63783,-0.37937 z M 157.94,520.11181 c -1.83052,-1.13064 -4.80173,-4.62619 -6.57418,-7.73442 -3.98617,-6.99017 -7.18059,-23.65452 -7.17668,-37.43878 0.005,-17.19784 4.48786,-31.83033 13.37945,-43.67068 3.01575,-4.01588 9.38419,-10.24663 13.30207,-13.01446 11.70214,-8.2671 37.11717,-11.11686 54.4841,-6.10925 2.9309,0.8451 7.79215,3.05199 13.53244,6.14339 15.75202,8.48317 30.84157,14.64442 42.39892,17.31211 9.90655,2.28661 18.54778,0.97961 30.55261,-4.62117 7.93871,-3.70379 13.62533,-7.74118 20.04364,-14.23066 6.49303,-6.56504 8.33613,-7.58893 11.92249,-6.62326 3.19229,0.85962 4.18767,2.27868 4.14542,5.90979 -0.1109,9.52637 -15.74057,25.2527 -31.28273,31.47603 -16.77392,6.71665 -35.9546,6.27269 -58.16769,-1.34637 -12.46761,-4.27633 -30.95994,-13.03431 -34.98632,-16.56955 -2.40885,-2.11498 -4.62215,-2.96776 -9.68057,-3.72989 -7.2607,-1.09402 -18.63388,0.1616 -26.88573,2.96823 -7.25558,2.4678 -10.84471,5.15611 -15.80945,11.84155 -4.14825,5.586 -7.07372,10.64746 -9.14755,15.82662 -5.07325,12.66986 -5.4657,17.79777 -2.35653,30.79128 3.91197,16.34859 4.69348,20.52912 4.773,25.53358 0.0679,4.27035 -0.0798,5.17829 -1.0572,6.49558 -1.39822,1.88461 -3.20947,2.14923 -5.40951,0.79033 z m 516.7194,-1.3277 c 0,-1.68806 6.02571,-5.8814 18.40414,-12.8076 15.90396,-8.89886 17.20756,-10.62438 20.86321,-27.61562 2.44321,-11.35589 3.17825,-18.35269 2.75786,-26.25297 -0.88594,-16.65148 -5.23125,-25.78447 -15.61312,-32.816 -3.25113,-2.20192 -7.52021,-5.928 -12.0677,-10.53272 -6.89394,-6.98072 -9.45217,-8.8575 -13.26181,-9.72934 -1.04201,-0.23841 -11.75973,-0.45088 -23.81714,-0.47202 -20.79753,-0.0365 -22.03367,-0.094 -24.08777,-1.12107 -6.18982,-3.0949 0.21622,-6.99769 8.11948,-4.94672 4.97372,1.29076 14.02369,1.96862 26.28886,1.96914 17.76319,7.4e-4 19.88382,0.72381 30.16397,10.28512 7.11293,6.61558 12.95557,11.48706 15.90558,13.26181 3.73575,2.24745 11.63771,20.67785 12.92001,30.13426 1.16383,8.58322 -2.46942,32.20618 -7.14557,46.45947 -1.38047,4.20776 -2.09441,5.53584 -3.92826,7.30752 -5.19715,5.02106 -26.44436,16.01351 -33.51693,17.34033 -1.58954,0.29819 -1.98481,0.20586 -1.98481,-0.46359 z m -251.43312,-0.75646 c -3.29824,-0.80351 -5.24154,-4.99912 -5.1959,-11.218 0.038,-5.16906 0.25361,-5.98476 2.11488,-8.00027 2.53907,-2.74944 5.75214,-3.40092 16.61351,-3.36853 11.09832,0.0331 17.03176,1.06551 23.64656,4.11449 7.48935,3.45206 9.24326,8.55674 3.74029,10.88606 -0.80297,0.33991 -7.31621,0.75851 -15.20767,0.97739 -8.16622,0.2265 -14.67888,0.65168 -15.94772,1.04115 -1.18513,0.36379 -3.00144,1.57349 -4.05974,2.7039 -1.6593,1.77236 -3.91302,3.38788 -4.45068,3.19035 -0.094,-0.0345 -0.65812,-0.18148 -1.25353,-0.32654 z m 258.23793,-23.36538 c -0.64533,-1.04415 1.74551,-4.70754 6.55647,-10.04613 8.34678,-9.26222 9.11242,-10.82906 9.0083,-18.43446 -0.0775,-5.65583 -1.40621,-16.62694 -2.9414,-24.28704 -1.83782,-9.1698 -4.05217,-12.13547 -12.6254,-16.90931 -5.77325,-3.21474 -10.39796,-7.18781 -9.89429,-8.50024 0.19304,-0.50315 0.80772,-0.91481 1.3659,-0.91481 1.60604,0 7.02156,2.00131 11.77237,4.35047 7.53243,3.72468 10.65736,7.75821 12.67313,16.35803 2.42614,10.35033 4.06612,33.84747 2.76752,39.65037 -0.80198,3.58364 -3.79412,8.29543 -7.96947,12.54983 -4.74319,4.83287 -9.75868,7.72766 -10.71313,6.18329 z m -352.63393,-7.10273 c -2.92464,-0.62419 -3.30701,-0.96953 -2.07269,-1.87209 1.65982,-1.21367 8.82298,-1.96378 23.39342,-2.44972 18.95255,-0.63208 25.70603,-2.06645 28.61881,-6.0784 1.04895,-1.44474 1.05036,-1.52669 0.0768,-4.39084 -1.18273,-3.47958 -0.87278,-4.69536 1.19411,-4.68398 1.80832,0.01 2.49537,0.42105 3.31907,1.986 1.63272,3.10191 -0.28061,9.73054 -3.7005,12.82022 -2.45825,2.22086 -4.02873,2.70697 -12.45738,3.85592 -7.32232,0.99812 -34.7784,1.57977 -38.37165,0.81289 z m 268.15279,-21.10759 c -7.95631,-1.46161 -10.99733,-2.66913 -14.65711,-5.82003 -3.90999,-3.36634 -6.34688,-9.61848 -5.15574,-13.22767 1.89213,-5.73314 5.46559,-5.70077 16.98842,0.15388 8.29211,4.21316 9.88619,3.93755 19.06335,-3.29599 16.29448,-12.84341 19.44562,-14.30351 32.31514,-14.97317 14.6427,-0.76198 28.90856,3.2091 35.39464,9.85257 4.36301,4.46885 5.13068,10.26324 1.82817,13.79862 -2.75228,2.94629 -7.62277,2.1132 -13.86532,-2.37167 -10.33472,-7.42475 -24.73305,-8.12903 -34.11328,-1.66864 -3.44835,2.37497 -5.92257,5.67675 -7.99234,10.66551 -1.85291,4.46598 -3.74212,6.58835 -6.56133,7.37106 -3.39102,0.94147 -17.02993,0.65721 -23.2446,-0.48447 z M 408.06994,427.83467 c -7.12056,-4.13655 -21.20324,-11.94082 -24.89973,-13.79879 -23.32443,-11.72381 -49.22559,-14.39332 -77.4293,-7.98023 -14.80895,3.36731 -24.49343,3.00374 -29.90336,-1.12268 -5.15465,-3.93161 -4.2839,-12.4471 2.28291,-22.32499 11.26478,-16.94456 34.95112,-27.35483 67.9708,-29.87344 22.43913,-1.71162 40.97605,2.21116 57.84213,12.24053 10.50426,6.24631 25.60572,18.93542 29.4778,24.76892 3.9408,5.9371 4.51512,12.25902 1.64943,18.15747 -2.44488,5.03236 -14.84978,16.57587 -21.35529,19.87248 -3.18023,1.61152 -2.9698,1.60928 -5.63539,0.0607 z m 8.80283,-23.25045 c 1.34438,-1.34439 1.9329,-2.42008 1.9329,-3.53284 0,-3.18999 -7.25041,-11.07132 -14.9386,-16.23845 -12.60087,-8.46896 -33.64036,-17.95304 -35.56256,-16.03084 -0.64131,0.64131 -3.80911,15.19096 -3.80911,17.49522 0,2.67139 1.47926,3.86858 5.42058,4.38703 5.85929,0.7708 10.89796,2.74506 25.48108,9.9842 11.00345,5.46214 13.37011,6.30923 16.91976,6.05583 2.15514,-0.15383 2.96776,-0.53197 4.55595,-2.12015 z M 299.7728,390.6317 c 5.76244,-1.79918 9.39955,-4.90396 7.88405,-6.73008 -0.89017,-1.07256 -5.55566,-1.06306 -8.72774,0.0178 -4.11937,1.4036 -8.7998,6.18308 -7.73774,7.90149 0.44419,0.71874 4.08804,0.21377 8.58143,-1.18921 z m -44.25882,20.7886 c -0.19847,-0.19847 -0.36086,-1.05459 -0.36086,-1.90246 0,-2.33664 2.69389,-3.8443 6.19227,-3.46569 1.47059,0.15915 3.01559,0.63113 3.43326,1.04885 0.65181,0.65175 0.50258,0.95544 -1.05229,2.1414 -2.88276,2.19879 -7.07873,3.31155 -8.21238,2.1779 z m -12.22539,-10.78361 c -3.29004,-0.88458 -5.68056,-2.21576 -7.54721,-4.20266 -2.54356,-2.70752 -0.4455,-4.31878 7.77383,-5.97025 5.97609,-1.20069 22.01869,-3.66667 22.26316,-3.42219 0.11007,0.11007 -3.75804,1.95562 -8.59569,4.1013 -8.65558,3.83908 -11.81461,5.62067 -11.14808,6.2872 0.18593,0.18594 3.02969,0.99982 6.31952,1.80874 3.28983,0.80887 6.15859,1.64776 6.37502,1.86419 0.74015,0.7401 -12.43289,0.34227 -15.44055,-0.46633 z m 269.40398,-28.16146 c -0.51484,-23.61711 2.16459,-36.31228 8.33785,-39.50457 1.73799,-0.89878 3.14801,-0.49077 3.14801,0.91095 0,0.55782 -1.1054,3.15026 -2.45642,5.76108 -3.20153,6.18673 -5.16404,14.1136 -7.00249,28.2839 -0.79117,6.09797 -1.53665,11.18542 -1.65669,11.30546 -0.11999,0.11999 -0.28666,-2.92056 -0.37026,-6.75682 z M 268.68562,356.11136 c 0,-3.42173 10.86664,-15.68523 23.97916,-27.0617 11.46837,-9.94995 19.45847,-14.4731 34.11208,-19.31075 12.11746,-4.00043 22.6047,-5.9643 37.4479,-7.01268 2.3817,-0.16824 6.09615,-0.44425 8.25426,-0.61337 6.85337,-0.53709 34.83338,-0.32666 40.5578,0.30499 8.7432,0.96483 12.84189,2.61781 9.01002,3.63377 -1.97474,0.52356 -13.52242,0.54748 -28.86261,0.0599 -22.08208,-0.70198 -42.21423,1.58343 -60.62212,6.88177 -18.32821,5.27542 -29.46141,12.51983 -49.26147,32.05453 -7.58324,7.48163 -12.96392,12.06222 -14.169,12.06222 -0.24531,0 -0.44602,-0.44937 -0.44602,-0.99867 z m 156.23766,-6.52066 c -0.68507,-11.73414 -3.23057,-18.8241 -10.86931,-30.27424 -4.06575,-6.09432 -5.05204,-8.17985 -4.38165,-9.26457 0.61578,-0.99632 4.27487,1.33953 7.42012,4.73676 3.59601,3.88415 6.91675,10.45696 8.51193,16.84812 1.29808,5.20075 1.4165,11.21121 0.38989,19.78962 l -0.64778,5.41301 -0.4232,-7.2487 z m 192.37621,4.67751 c -0.57797,-1.26529 -1.78378,-4.74565 -2.67959,-7.73414 -2.77409,-9.25428 -6.91462,-14.22497 -18.07873,-21.70346 -7.80483,-5.22822 -14.56792,-8.57215 -19.60221,-9.69216 -3.49618,-0.77786 -5.69628,-0.88787 -12.14096,-0.60727 -15.225,0.66293 -37.18416,3.51106 -48.6365,6.30819 -7.40346,1.80827 -9.42012,1.98089 -10.33029,0.88421 -2.57891,-3.10744 8.08957,-6.35131 29.44382,-8.95268 25.7312,-3.13459 37.67718,-3.68897 44.11586,-2.04726 4.30244,1.09704 14.23265,6.03787 20.72735,10.313 9.00453,5.92728 15.77499,13.58748 18.36612,20.77983 1.74833,4.85289 2.01938,14.75229 0.40394,14.75229 -0.29591,0 -1.01089,-1.03527 -1.58881,-2.30055 z m -367.31908,-4.00889 c 0.81665,-3.28137 12.49936,-17.41664 19.91655,-24.09764 21.85207,-19.68325 50.92072,-35.2452 77.09523,-41.27315 16.02603,-3.69074 30.35398,-5.23234 50.79305,-5.46496 21.7397,-0.24745 31.30111,0.607 49.52881,4.42608 20.18222,4.22861 32.72701,5.32947 60.62541,5.32007 23.60066,-0.008 30.75447,-0.40885 54.94182,-3.0794 25.14086,-2.77587 39.43006,-2.35685 45.99436,1.34872 2.7176,1.53409 4.61704,4.31414 4.61704,6.75745 0,1.83453 -0.0445,1.87328 -1.75924,1.53153 -0.96755,-0.19278 -3.38961,-1.43394 -5.38231,-2.75802 -1.99269,-1.32413 -5.15929,-2.93032 -7.03685,-3.56933 -3.15083,-1.0723 -4.1435,-1.13762 -12.88654,-0.84777 -5.20999,0.17273 -12.39571,0.68778 -15.96829,1.14451 -13.22787,1.69109 -31.3103,3.03794 -47.32449,3.52484 -9.05879,0.27544 -16.63215,0.40097 -16.82963,0.27889 -0.19753,-0.12208 -4.47783,-0.26338 -9.51181,-0.31403 -17.12157,-0.17225 -35.56241,-2.14636 -53.26853,-5.70243 -28.43658,-5.71111 -55.45886,-5.94342 -82.27739,-0.70731 -37.87785,7.39536 -69.53063,23.76503 -92.21621,47.69083 -7.11638,7.50543 -15.5278,15.27471 -17.8741,16.50955 l -1.56004,0.82098 0.38316,-1.53941 z"
         style="fill:#000000"
         inkscape:connector-curvature="0" />
    </g>
  </g>
</svg>
